<svg xmlns="http://www.w3.org/2000/svg" xmlns:xlink="http://www.w3.org/1999/xlink" width="48" zoomAndPan="magnify" viewBox="0 0 36 36.000001" height="48" preserveAspectRatio="xMidYMid meet" version="1.0"><defs><filter x="0%" y="0%" width="100%" height="100%" id="2de6b1bb96"><feColorMatrix values="0 0 0 0 1 0 0 0 0 1 0 0 0 0 1 0 0 0 1 0" color-interpolation-filters="sRGB"/></filter><g/><clipPath id="8c23966dbd"><path d="M 0.816406 0 L 35.113281 0 L 35.113281 35 L 0.816406 35 Z M 0.816406 0 " clip-rule="nonzero"/></clipPath><mask id="b903c02640"><g filter="url(#2de6b1bb96)"><rect x="-3.6" width="43.2" fill="#000000" y="-3.6" height="43.200001" fill-opacity="0.41"/></g></mask><clipPath id="f91155b3f7"><path d="M 0.660156 0 L 20.273438 0 L 20.273438 31.523438 L 0.660156 31.523438 Z M 0.660156 0 " clip-rule="nonzero"/></clipPath><clipPath id="206409eabd"><rect x="0" width="21" y="0" height="32"/></clipPath><clipPath id="1cc550f822"><rect x="0" width="21" y="0" height="32"/></clipPath><clipPath id="154f6ac1f7"><path d="M 0.0585938 6 L 15.941406 6 L 15.941406 21 L 0.0585938 21 Z M 0.0585938 6 " clip-rule="nonzero"/></clipPath><clipPath id="a22e90337c"><rect x="0" width="16" y="0" height="28"/></clipPath></defs><g clip-path="url(#8c23966dbd)"><path fill="#f8c3d9" d="M 13.609375 0.117188 C 14.210938 0.492188 14.835938 0.796875 15.480469 1.027344 C 16.023438 1.214844 16.617188 1.339844 17.269531 1.394531 C 19.121094 1.550781 20.824219 1.144531 22.382812 0.171875 C 22.386719 0.171875 22.390625 0.167969 22.398438 0.167969 L 22.429688 0.160156 C 22.46875 0.132812 22.507812 0.132812 22.550781 0.15625 C 25.125 1.300781 26.515625 1.917969 26.726562 2.015625 C 27.347656 2.300781 27.839844 2.53125 28.199219 2.695312 C 28.742188 2.953125 29.210938 3.289062 29.613281 3.71875 C 30.03125 4.15625 30.421875 4.679688 30.785156 5.277344 C 31.285156 6.101562 31.648438 6.699219 31.867188 7.066406 C 32.914062 8.832031 33.738281 10.21875 34.511719 11.558594 C 34.625 11.761719 34.796875 12.046875 35.015625 12.40625 C 35.179688 12.679688 35.089844 12.933594 34.890625 13.15625 C 34.707031 13.359375 34.484375 13.578125 34.222656 13.816406 C 32.9375 15.007812 31.464844 15.996094 29.8125 16.777344 C 29.722656 16.820312 29.660156 16.847656 29.621094 16.859375 C 29.324219 17.027344 29.070312 17.050781 28.847656 16.914062 C 28.761719 16.859375 28.589844 16.664062 28.34375 16.328125 C 28.152344 16.0625 27.957031 15.800781 27.765625 15.53125 C 27.722656 15.46875 27.6875 15.410156 27.652344 15.347656 C 27.636719 15.347656 27.632812 15.351562 27.632812 15.355469 C 27.65625 16.039062 27.691406 17.183594 27.734375 18.78125 C 27.898438 25.199219 28.039062 30.242188 28.148438 33.90625 C 28.15625 34.152344 28.152344 34.3125 28.144531 34.367188 C 28.09375 34.640625 27.851562 34.867188 27.574219 34.902344 C 27.523438 34.90625 27.398438 34.910156 27.203125 34.910156 C 19.589844 34.90625 13.347656 34.90625 8.484375 34.910156 C 8.164062 34.910156 7.898438 34.527344 7.910156 34.226562 C 8.003906 31.054688 8.121094 27.023438 8.261719 22.132812 C 8.28125 21.472656 8.332031 19.378906 8.40625 15.828125 C 8.40625 15.828125 8.40625 15.757812 8.417969 15.609375 C 8.421875 15.519531 8.421875 15.429688 8.414062 15.335938 C 8.113281 15.78125 7.808594 16.214844 7.507812 16.636719 C 7.324219 16.890625 7.066406 17.078125 6.738281 16.984375 C 6.640625 16.960938 6.527344 16.914062 6.402344 16.855469 C 5.425781 16.390625 4.546875 15.894531 3.765625 15.359375 C 2.851562 14.734375 2.007812 14.027344 1.226562 13.230469 C 1.113281 13.121094 1.046875 13.039062 1.019531 12.992188 C 0.816406 12.621094 1.089844 12.296875 1.328125 11.945312 C 1.335938 11.933594 1.34375 11.921875 1.347656 11.902344 C 1.371094 11.855469 1.386719 11.824219 1.402344 11.796875 C 2.585938 9.773438 3.871094 7.613281 5.265625 5.320312 C 5.785156 4.46875 6.421875 3.589844 7.277344 3.015625 C 7.453125 2.902344 7.929688 2.664062 8.71875 2.300781 C 9.996094 1.714844 11.28125 1.136719 12.582031 0.574219 C 12.839844 0.402344 13.304688 0.246094 13.609375 0.117188 Z M 13.609375 0.117188 " fill-opacity="1" fill-rule="evenodd"/></g><path fill="#f287b3" d="M 22.429688 0.160156 C 22.371094 0.75 22.128906 1.351562 21.855469 1.875 C 21.554688 2.457031 21.148438 2.949219 20.667969 3.355469 C 19.101562 4.664062 16.757812 4.621094 15.238281 3.222656 C 14.496094 2.542969 13.992188 1.644531 13.726562 0.683594 C 13.679688 0.515625 13.640625 0.328125 13.609375 0.117188 C 14.210938 0.492188 14.835938 0.796875 15.480469 1.027344 C 16.023438 1.214844 16.617188 1.339844 17.269531 1.394531 C 19.121094 1.550781 20.824219 1.144531 22.382812 0.171875 C 22.386719 0.171875 22.390625 0.167969 22.398438 0.167969 Z M 22.429688 0.160156 " fill-opacity="1" fill-rule="evenodd"/><path fill="#f8c3d9" d="M 18.035156 33.996094 C 21.175781 33.996094 24.109375 33.933594 26.839844 33.804688 C 26.941406 33.796875 27.03125 33.789062 27.105469 33.785156 C 27.109375 33.785156 27.113281 33.78125 27.113281 33.777344 L 27.113281 33.773438 C 27.113281 33.769531 27.109375 33.765625 27.101562 33.765625 C 24.082031 33.660156 21.058594 33.597656 18.035156 33.597656 C 15.007812 33.597656 11.984375 33.660156 8.964844 33.765625 C 8.957031 33.765625 8.953125 33.769531 8.953125 33.773438 C 8.953125 33.773438 8.953125 33.777344 8.953125 33.777344 C 8.953125 33.78125 8.953125 33.78125 8.957031 33.785156 C 9.03125 33.789062 9.121094 33.796875 9.226562 33.804688 C 11.953125 33.933594 14.886719 33.996094 18.035156 33.996094 Z M 18.035156 33.996094 " fill-opacity="1" fill-rule="evenodd"/><path fill="#f8c3d9" d="M 6.65625 15.976562 C 6.660156 15.976562 6.660156 15.976562 6.664062 15.976562 C 6.667969 15.976562 6.675781 15.972656 6.675781 15.964844 C 6.675781 15.960938 6.675781 15.957031 6.667969 15.957031 C 6.621094 15.925781 6.542969 15.867188 6.421875 15.785156 C 5.605469 15.214844 4.835938 14.675781 4.101562 14.167969 C 3.492188 13.742188 2.75 13.128906 1.886719 12.339844 C 1.800781 12.257812 1.707031 12.164062 1.605469 12.054688 C 1.507812 11.949219 1.453125 11.898438 1.433594 11.902344 C 1.433594 11.902344 1.433594 11.902344 1.429688 11.902344 C 1.417969 11.910156 1.410156 11.925781 1.414062 11.9375 C 1.414062 11.9375 1.414062 11.941406 1.417969 11.941406 C 1.550781 12.195312 1.714844 12.429688 1.925781 12.648438 C 2.261719 13.007812 2.609375 13.335938 2.957031 13.628906 C 3.804688 14.347656 4.648438 14.941406 5.496094 15.410156 C 5.886719 15.632812 6.277344 15.820312 6.65625 15.976562 Z M 6.65625 15.976562 " fill-opacity="1" fill-rule="evenodd"/><path fill="#f8c3d9" d="M 29.375 16 C 30.136719 15.667969 30.851562 15.277344 31.515625 14.828125 C 32.347656 14.269531 33.046875 13.71875 33.613281 13.179688 C 33.871094 12.9375 34.058594 12.742188 34.175781 12.589844 C 34.335938 12.390625 34.484375 12.167969 34.632812 11.917969 C 34.632812 11.917969 34.632812 11.914062 34.632812 11.914062 C 34.632812 11.910156 34.628906 11.902344 34.625 11.902344 C 34.625 11.902344 34.621094 11.902344 34.621094 11.910156 C 33.566406 12.945312 32.460938 13.832031 31.144531 14.734375 C 30.359375 15.273438 29.90625 15.59375 29.78125 15.691406 C 29.65625 15.789062 29.5 15.875 29.363281 15.976562 C 29.363281 15.976562 29.359375 15.984375 29.359375 15.988281 C 29.359375 15.992188 29.363281 16 29.371094 16 C 29.371094 16 29.375 16 29.375 16 Z M 29.375 16 " fill-opacity="1" fill-rule="evenodd"/><path fill="#f287b3" d="M 12.636719 0.539062 C 12.644531 0.636719 12.640625 0.617188 12.65625 0.695312 C 13 1.976562 13.679688 3.039062 14.695312 3.886719 C 15.179688 4.296875 15.726562 4.574219 16.34375 4.789062 C 18.28125 5.457031 20.386719 4.910156 21.835938 3.457031 C 22.632812 2.652344 23.15625 1.707031 23.410156 0.613281 C 23.410156 0.605469 23.417969 0.59375 23.429688 0.59375 L 23.449219 0.59375 C 23.457031 0.59375 23.460938 0.605469 23.460938 0.613281 C 23.410156 0.988281 23.300781 1.394531 23.128906 1.828125 C 22.730469 2.832031 22.136719 3.640625 21.34375 4.257812 C 19.9375 5.355469 18.113281 5.660156 16.402344 5.15625 C 15.785156 4.972656 15.257812 4.664062 14.757812 4.289062 C 14.417969 4.035156 14.109375 3.730469 13.832031 3.375 C 13.183594 2.542969 12.765625 1.613281 12.582031 0.574219 C 12.59375 0.566406 12.613281 0.550781 12.636719 0.539062 Z M 12.636719 0.539062 " fill-opacity="1" fill-rule="evenodd"/><path fill="#f287b3" d="M 8.414062 15.335938 C 8.113281 15.78125 7.808594 16.214844 7.507812 16.636719 C 7.324219 16.890625 7.066406 17.078125 6.738281 16.984375 C 6.640625 16.960938 6.527344 16.914062 6.402344 16.855469 C 6.507812 16.660156 6.601562 16.460938 6.675781 16.242188 C 7.214844 14.703125 7.601562 13.152344 7.828125 11.59375 C 8.121094 9.554688 8.058594 7.542969 7.636719 5.5625 C 7.589844 5.335938 7.527344 5.117188 7.464844 4.90625 C 7.394531 4.675781 7.320312 4.460938 7.246094 4.265625 C 7.246094 4.265625 7.246094 4.257812 7.246094 4.257812 C 7.246094 4.246094 7.253906 4.238281 7.261719 4.238281 C 7.269531 4.238281 7.277344 4.242188 7.277344 4.246094 C 7.28125 4.246094 7.28125 4.253906 7.28125 4.273438 C 7.277344 4.289062 7.28125 4.300781 7.289062 4.316406 C 7.335938 4.40625 7.382812 4.5 7.421875 4.59375 C 7.75 5.414062 7.988281 6.269531 8.140625 7.160156 C 8.316406 8.214844 8.417969 9.292969 8.4375 10.390625 C 8.476562 12.046875 8.46875 13.695312 8.414062 15.335938 Z M 8.414062 15.335938 " fill-opacity="1" fill-rule="evenodd"/><path fill="#f287b3" d="M 29.621094 16.859375 C 29.324219 17.027344 29.070312 17.050781 28.847656 16.914062 C 28.761719 16.859375 28.589844 16.664062 28.34375 16.328125 C 28.152344 16.0625 27.957031 15.800781 27.765625 15.53125 C 27.722656 15.46875 27.6875 15.410156 27.652344 15.347656 C 27.648438 15.324219 27.648438 15.304688 27.648438 15.28125 C 27.613281 14.066406 27.597656 12.886719 27.601562 11.746094 C 27.609375 9.902344 27.734375 8.082031 28.109375 6.269531 C 28.148438 6.085938 28.246094 5.738281 28.402344 5.210938 C 28.5 4.882812 28.625 4.578125 28.765625 4.304688 C 28.769531 4.300781 28.773438 4.296875 28.777344 4.300781 C 28.78125 4.300781 28.789062 4.304688 28.789062 4.3125 C 28.789062 4.3125 28.789062 4.316406 28.789062 4.316406 C 28.65625 4.6875 28.570312 4.964844 28.527344 5.148438 C 28.09375 6.890625 27.96875 8.6875 28.136719 10.542969 C 28.203125 11.226562 28.261719 11.757812 28.328125 12.132812 C 28.539062 13.421875 28.859375 14.714844 29.289062 16.015625 C 29.375 16.292969 29.503906 16.582031 29.621094 16.859375 Z M 29.621094 16.859375 " fill-opacity="1" fill-rule="evenodd"/><path fill="#f287b3" d="M 29.375 16 C 29.375 16 29.371094 16 29.371094 16 C 29.363281 16 29.359375 15.992188 29.359375 15.988281 C 29.359375 15.984375 29.363281 15.976562 29.363281 15.976562 C 29.5 15.875 29.65625 15.789062 29.78125 15.691406 C 29.90625 15.59375 30.359375 15.273438 31.144531 14.734375 C 32.460938 13.832031 33.566406 12.945312 34.621094 11.910156 C 34.621094 11.902344 34.625 11.902344 34.625 11.902344 C 34.628906 11.902344 34.632812 11.910156 34.632812 11.914062 C 34.632812 11.914062 34.632812 11.917969 34.632812 11.917969 C 34.484375 12.167969 34.335938 12.390625 34.175781 12.589844 C 34.058594 12.742188 33.871094 12.9375 33.613281 13.179688 C 33.046875 13.71875 32.347656 14.269531 31.515625 14.828125 C 30.851562 15.277344 30.136719 15.667969 29.375 16 Z M 29.375 16 " fill-opacity="1" fill-rule="evenodd"/><path fill="#f287b3" d="M 6.65625 15.976562 C 6.277344 15.820312 5.886719 15.632812 5.496094 15.410156 C 4.648438 14.941406 3.804688 14.347656 2.957031 13.628906 C 2.609375 13.335938 2.261719 13.007812 1.925781 12.648438 C 1.714844 12.429688 1.550781 12.195312 1.417969 11.941406 C 1.414062 11.941406 1.414062 11.9375 1.414062 11.9375 C 1.410156 11.925781 1.417969 11.910156 1.429688 11.902344 C 1.433594 11.902344 1.433594 11.902344 1.433594 11.902344 C 1.453125 11.898438 1.507812 11.949219 1.605469 12.054688 C 1.707031 12.164062 1.800781 12.257812 1.886719 12.339844 C 2.75 13.128906 3.492188 13.742188 4.101562 14.167969 C 4.835938 14.675781 5.605469 15.214844 6.421875 15.785156 C 6.542969 15.867188 6.621094 15.925781 6.667969 15.957031 C 6.675781 15.957031 6.675781 15.960938 6.675781 15.964844 C 6.675781 15.972656 6.667969 15.976562 6.664062 15.976562 C 6.660156 15.976562 6.660156 15.976562 6.65625 15.976562 Z M 6.65625 15.976562 " fill-opacity="1" fill-rule="evenodd"/><path fill="#f287b3" d="M 18.035156 33.597656 C 21.058594 33.597656 24.082031 33.660156 27.101562 33.765625 C 27.109375 33.765625 27.113281 33.769531 27.113281 33.773438 L 27.113281 33.777344 C 27.113281 33.78125 27.109375 33.785156 27.105469 33.785156 C 27.03125 33.789062 26.941406 33.796875 26.839844 33.804688 C 24.109375 33.933594 21.175781 33.996094 18.035156 33.996094 C 14.886719 33.996094 11.953125 33.933594 9.226562 33.804688 C 9.121094 33.796875 9.03125 33.789062 8.957031 33.785156 C 8.953125 33.78125 8.953125 33.78125 8.953125 33.777344 C 8.953125 33.777344 8.953125 33.773438 8.953125 33.773438 C 8.953125 33.769531 8.957031 33.765625 8.964844 33.765625 C 11.984375 33.660156 15.007812 33.597656 18.035156 33.597656 Z M 18.035156 33.597656 " fill-opacity="1" fill-rule="evenodd"/><g mask="url(#b903c02640)"><g transform="matrix(1, 0, 0, 1, 8, 0.000000000000010582)"><g clip-path="url(#1cc550f822)"><g clip-path="url(#f91155b3f7)"><g transform="matrix(1, 0, 0, 1, 0, 0.000000000000010582)"><g clip-path="url(#206409eabd)"><g fill="#ffffff" fill-opacity="1"><g transform="translate(0.841429, 23.050063)"><g><path d="M 9.875 -8.546875 C 11.257812 -12.691406 12.179688 -14.765625 12.640625 -14.765625 C 12.691406 -14.765625 12.75 -14.753906 12.8125 -14.734375 C 13.03125 -14.722656 13.273438 -14.8125 13.546875 -15 C 13.898438 -15.300781 14.304688 -15.53125 14.765625 -15.6875 C 15.234375 -15.851562 15.691406 -15.914062 16.140625 -15.875 C 17.179688 -15.78125 17.835938 -15.234375 18.109375 -14.234375 L 18.109375 -14.171875 C 18.035156 -13.984375 17.96875 -13.828125 17.90625 -13.703125 L 17.984375 -13.703125 C 17.640625 -13.285156 17.3125 -12.742188 17 -12.078125 C 16.695312 -11.410156 16.460938 -10.890625 16.296875 -10.515625 C 16.140625 -10.148438 15.910156 -9.679688 15.609375 -9.109375 C 15.316406 -8.546875 14.976562 -7.851562 14.59375 -7.03125 C 14.207031 -6.207031 13.804688 -5.390625 13.390625 -4.578125 C 12.390625 -2.628906 11.394531 -1.101562 10.40625 0 C 9.90625 0.601562 9.234375 0.898438 8.390625 0.890625 C 8.023438 0.878906 7.671875 0.785156 7.328125 0.609375 C 6.992188 0.429688 6.734375 0.160156 6.546875 -0.203125 L 6.109375 -1.484375 C 5.941406 -1.328125 5.738281 -1.132812 5.5 -0.90625 C 5.269531 -0.675781 5.03125 -0.441406 4.78125 -0.203125 C 4.1875 0.359375 3.726562 0.65625 3.40625 0.6875 C 3.082031 0.71875 2.804688 0.722656 2.578125 0.703125 C 2.347656 0.679688 2.128906 0.628906 1.921875 0.546875 C 1.460938 0.367188 1.164062 0.03125 1.03125 -0.46875 C 0.800781 -2.769531 0.914062 -5.71875 1.375 -9.3125 C 1.5 -10.1875 1.609375 -11.050781 1.703125 -11.90625 C 1.929688 -13.101562 2.363281 -13.96875 3 -14.5 C 3.539062 -14.957031 4.066406 -15.09375 4.578125 -14.90625 C 4.804688 -14.820312 4.976562 -14.6875 5.09375 -14.5 C 5.21875 -14.3125 5.257812 -14.082031 5.21875 -13.8125 C 5.25 -12.988281 5.242188 -12.375 5.203125 -11.96875 C 5.148438 -11.28125 5.128906 -10.773438 5.140625 -10.453125 C 5.148438 -10.128906 5.144531 -9.859375 5.125 -9.640625 C 5.113281 -9.429688 5.101562 -9.234375 5.09375 -9.046875 C 5.082031 -8.867188 5.085938 -8.722656 5.109375 -8.609375 C 5.128906 -8.492188 5.179688 -8.472656 5.265625 -8.546875 C 5.578125 -9.203125 5.835938 -9.675781 6.046875 -9.96875 C 6.265625 -10.269531 6.5 -10.585938 6.75 -10.921875 C 7.125 -11.253906 7.453125 -11.378906 7.734375 -11.296875 C 7.878906 -11.273438 8.03125 -11.222656 8.1875 -11.140625 C 8.351562 -11.066406 8.570312 -11.003906 8.84375 -10.953125 C 9.019531 -10.804688 9.132812 -10.644531 9.1875 -10.46875 C 9.226562 -10.425781 9.269531 -10.390625 9.3125 -10.359375 C 9.351562 -10.328125 9.382812 -10.285156 9.40625 -10.234375 C 9.425781 -10.191406 9.457031 -10.085938 9.5 -9.921875 C 9.550781 -9.753906 9.601562 -9.578125 9.65625 -9.390625 C 9.707031 -9.210938 9.753906 -9.039062 9.796875 -8.875 C 9.835938 -8.707031 9.863281 -8.597656 9.875 -8.546875 Z M 10.375 -0.0625 C 10.375 -0.03125 10.375 -0.0234375 10.375 -0.046875 C 10.382812 -0.0664062 10.390625 -0.09375 10.390625 -0.125 Z M 10.375 -0.0625 "/></g></g></g></g></g></g></g></g></g><g transform="matrix(1, 0, 0, 1, 10, 7)"><g clip-path="url(#a22e90337c)"><g clip-path="url(#154f6ac1f7)"><g fill="#f287b3" fill-opacity="1"><g transform="translate(0.105943, 19.464313)"><g><path d="M 8.296875 -7.1875 C 9.460938 -10.664062 10.238281 -12.40625 10.625 -12.40625 C 10.664062 -12.40625 10.710938 -12.398438 10.765625 -12.390625 C 10.953125 -12.378906 11.160156 -12.453125 11.390625 -12.609375 C 11.679688 -12.859375 12.019531 -13.050781 12.40625 -13.1875 C 12.800781 -13.320312 13.1875 -13.375 13.5625 -13.34375 C 14.4375 -13.257812 14.988281 -12.800781 15.21875 -11.96875 L 15.21875 -11.90625 C 15.15625 -11.75 15.097656 -11.617188 15.046875 -11.515625 L 15.109375 -11.515625 C 14.828125 -11.160156 14.554688 -10.703125 14.296875 -10.140625 C 14.035156 -9.585938 13.835938 -9.15625 13.703125 -8.84375 C 13.566406 -8.53125 13.375 -8.132812 13.125 -7.65625 C 12.875 -7.175781 12.585938 -6.585938 12.265625 -5.890625 C 11.941406 -5.203125 11.601562 -4.519531 11.25 -3.84375 C 10.40625 -2.207031 9.570312 -0.925781 8.75 0 C 8.320312 0.507812 7.753906 0.757812 7.046875 0.75 C 6.734375 0.738281 6.4375 0.660156 6.15625 0.515625 C 5.875 0.367188 5.65625 0.140625 5.5 -0.171875 L 5.140625 -1.234375 C 4.992188 -1.117188 4.820312 -0.960938 4.625 -0.765625 C 4.4375 -0.566406 4.234375 -0.367188 4.015625 -0.171875 C 3.515625 0.304688 3.128906 0.554688 2.859375 0.578125 C 2.585938 0.597656 2.351562 0.597656 2.15625 0.578125 C 1.96875 0.566406 1.785156 0.523438 1.609375 0.453125 C 1.222656 0.304688 0.976562 0.0234375 0.875 -0.390625 C 0.675781 -2.328125 0.769531 -4.804688 1.15625 -7.828125 C 1.257812 -8.566406 1.347656 -9.289062 1.421875 -10 C 1.617188 -11.007812 1.984375 -11.738281 2.515625 -12.1875 C 2.972656 -12.570312 3.414062 -12.6875 3.84375 -12.53125 C 4.039062 -12.457031 4.1875 -12.335938 4.28125 -12.171875 C 4.382812 -12.015625 4.421875 -11.828125 4.390625 -11.609375 C 4.410156 -10.910156 4.40625 -10.394531 4.375 -10.0625 C 4.332031 -9.476562 4.316406 -9.050781 4.328125 -8.78125 C 4.335938 -8.507812 4.332031 -8.285156 4.3125 -8.109375 C 4.289062 -7.929688 4.273438 -7.765625 4.265625 -7.609375 C 4.265625 -7.460938 4.273438 -7.335938 4.296875 -7.234375 C 4.316406 -7.140625 4.359375 -7.125 4.421875 -7.1875 C 4.679688 -7.738281 4.898438 -8.140625 5.078125 -8.390625 C 5.265625 -8.640625 5.460938 -8.898438 5.671875 -9.171875 C 5.984375 -9.453125 6.257812 -9.5625 6.5 -9.5 C 6.625 -9.46875 6.753906 -9.421875 6.890625 -9.359375 C 7.023438 -9.304688 7.207031 -9.253906 7.4375 -9.203125 C 7.582031 -9.078125 7.675781 -8.941406 7.71875 -8.796875 C 7.757812 -8.765625 7.796875 -8.734375 7.828125 -8.703125 C 7.859375 -8.671875 7.878906 -8.632812 7.890625 -8.59375 C 7.910156 -8.5625 7.941406 -8.476562 7.984375 -8.34375 C 8.023438 -8.207031 8.066406 -8.0625 8.109375 -7.90625 C 8.160156 -7.75 8.203125 -7.597656 8.234375 -7.453125 C 8.265625 -7.316406 8.285156 -7.226562 8.296875 -7.1875 Z M 8.71875 -0.046875 C 8.71875 -0.0234375 8.71875 -0.0195312 8.71875 -0.03125 C 8.726562 -0.0507812 8.734375 -0.078125 8.734375 -0.109375 Z M 8.71875 -0.046875 "/></g></g></g></g></g></g></svg>